<svg xmlns="http://www.w3.org/2000/svg" xmlns:xlink="http://www.w3.org/1999/xlink" viewBox="0 0 640 640" width="256" height="256"><defs><path d="M442.45 196.02c-31.32-44.81-93.18-58.08-137.91-29.6-26.19 16.68-52.37 33.37-78.55 50.07a90.072 90.072 0 0 0-40.72 60.23 94.931 94.931 0 0 0 9.35 60.94 90.572 90.572 0 0 0-13.48 33.68 95.99 95.99 0 0 0 16.43 72.64c31.33 44.81 93.18 58.1 137.89 29.6 7.86-4.97 70.69-44.85 78.55-49.84a90.227 90.227 0 0 0 40.72-60.24c3.75-20.78.44-42.22-9.37-60.92a90.407 90.407 0 0 0 13.5-33.68 96.042 96.042 0 0 0-16.41-72.64" id="a"/><path d="M442.45 196.02c-31.32-44.81-93.18-58.08-137.91-29.6-26.19 16.68-52.37 33.37-78.55 50.07a90.072 90.072 0 0 0-40.72 60.23 94.931 94.931 0 0 0 9.35 60.94 90.572 90.572 0 0 0-13.48 33.68 95.99 95.99 0 0 0 16.43 72.64c31.33 44.81 93.18 58.1 137.89 29.6 7.86-4.97 70.69-44.85 78.55-49.84a90.227 90.227 0 0 0 40.72-60.24c3.75-20.78.44-42.22-9.37-60.92a90.407 90.407 0 0 0 13.5-33.68 96.042 96.042 0 0 0-16.41-72.64" id="b"/><path d="M320.01 521.73c-111.34 0-201.74-90.38-201.74-201.72s90.4-201.74 201.74-201.74c111.32 0 201.72 90.4 201.72 201.74s-90.4 201.72-201.72 201.72z" id="c"/><path d="M320.01 521.73c-111.34 0-201.74-90.38-201.74-201.72s90.4-201.74 201.74-201.74c111.32 0 201.72 90.4 201.72 201.74s-90.4 201.72-201.72 201.72z" id="d"/><path d="M291.1 447.07c-25.6 5.42-51.86-5.69-65.8-27.84a57.754 57.754 0 0 1-7.86-44.07c.56-2.44 1.29-4.84 2.2-7.17.11-.29.66-1.78 1.66-4.44 2.36 1.91 3.64 2.97 3.91 3.17a101.03 101.03 0 0 0 29.91 16.61c.2.07 1.17.42 2.97 1.02-.24 1.8-.38 2.8-.42 3-.47 4.11.51 8.26 2.75 11.72 4.22 6.66 12.12 10.01 19.83 8.37 1.73-.38 3.37-1 4.9-1.89 8.06-4.64 72.56-41.8 80.62-46.46 4-2.27 6.85-6.13 7.86-10.62 1.02-4.57.15-9.37-2.4-13.27-4.22-6.66-12.12-10.02-19.83-8.37-1.73.37-3.37 1-4.9 1.88-3.11 1.78-27.87 15.97-30.95 17.74a56.735 56.735 0 0 1-16.23 6.26c-25.56 5.4-51.78-5.7-65.69-27.81a57.65 57.65 0 0 1-7.8-44.05 54.2 54.2 0 0 1 26.09-35.19c8.1-4.64 72.78-41.81 80.86-46.45 5.02-2.9 10.47-5.01 16.14-6.26 25.59-5.43 51.85 5.68 65.76 27.84a57.72 57.72 0 0 1 7.9 44.07c-.6 2.44-1.33 4.86-2.2 7.22-.11.31-.68 1.77-1.71 4.44-2.33-1.91-3.61-2.98-3.86-3.18a102.264 102.264 0 0 0-29.99-16.74c-.2-.06-1.2-.4-2.98-1 .25-1.79.38-2.79.4-2.99.54-4.13-.4-8.32-2.66-11.81a18.705 18.705 0 0 0-19.7-8.17c-1.73.37-3.39 1.02-4.92 1.88-8.06 4.64-72.67 41.74-80.75 46.38a16.403 16.403 0 0 0-7.86 10.59c-1 4.58-.13 9.37 2.42 13.3a18.763 18.763 0 0 0 19.67 8.37c1.71-.38 3.38-1.02 4.91-1.89 3.08-1.77 27.84-15.94 30.95-17.71a55.95 55.95 0 0 1 16.25-6.29c25.6-5.44 51.86 5.67 65.76 27.82a57.61 57.61 0 0 1 7.9 44.07 54.093 54.093 0 0 1-26.11 35.17c-8.06 4.64-72.66 41.8-80.74 46.47a57.858 57.858 0 0 1-16.26 6.28" id="e"/><path d="M291.1 447.07c-25.6 5.42-51.86-5.69-65.8-27.84a57.754 57.754 0 0 1-7.86-44.07c.56-2.44 1.29-4.84 2.2-7.17.11-.29.66-1.78 1.66-4.44 2.36 1.91 3.64 2.97 3.91 3.17a101.03 101.03 0 0 0 29.91 16.61c.2.07 1.17.42 2.97 1.02-.24 1.8-.38 2.8-.42 3-.47 4.11.51 8.26 2.75 11.72 4.22 6.66 12.12 10.01 19.83 8.37 1.73-.38 3.37-1 4.9-1.89 8.06-4.64 72.56-41.8 80.62-46.46 4-2.27 6.85-6.13 7.86-10.62 1.02-4.57.15-9.37-2.4-13.27-4.22-6.66-12.12-10.02-19.83-8.37-1.73.37-3.37 1-4.9 1.88-3.11 1.78-27.87 15.97-30.95 17.74a56.735 56.735 0 0 1-16.23 6.26c-25.56 5.4-51.78-5.7-65.69-27.81a57.65 57.65 0 0 1-7.8-44.05 54.2 54.2 0 0 1 26.09-35.19c8.1-4.64 72.78-41.81 80.86-46.45 5.02-2.9 10.47-5.01 16.14-6.26 25.59-5.43 51.85 5.68 65.76 27.84a57.72 57.72 0 0 1 7.9 44.07c-.6 2.44-1.33 4.86-2.2 7.22-.11.31-.68 1.77-1.71 4.44-2.33-1.91-3.61-2.98-3.86-3.18a102.264 102.264 0 0 0-29.99-16.74c-.2-.06-1.2-.4-2.98-1 .25-1.79.38-2.79.4-2.99.54-4.13-.4-8.32-2.66-11.81a18.705 18.705 0 0 0-19.7-8.17c-1.73.37-3.39 1.02-4.92 1.88-8.06 4.64-72.67 41.74-80.75 46.38a16.403 16.403 0 0 0-7.86 10.59c-1 4.58-.13 9.37 2.42 13.3a18.763 18.763 0 0 0 19.67 8.37c1.71-.38 3.38-1.02 4.91-1.89 3.08-1.77 27.84-15.94 30.95-17.71a55.95 55.95 0 0 1 16.25-6.29c25.6-5.44 51.86 5.67 65.76 27.82a57.61 57.61 0 0 1 7.9 44.07 54.093 54.093 0 0 1-26.11 35.17c-8.06 4.64-72.66 41.8-80.74 46.47a57.858 57.858 0 0 1-16.26 6.28" id="f"/><path d="M321.01.07l.31.04.33.05.31.08.32.07.62.22.29.11.57.27.29.16.27.15.26.18.25.18.27.2.24.2.22.2.45.44.22.24.2.25.17.24.18.27.18.24.16.29.15.27.27.58.13.31.09.28.11.32.09.31.07.31.04.33.07.33.02.31.02.34v65.94l4.64.2 4.62.28 4.57.36 4.58.44 4.53.54 4.5.62 4.51.69 4.44.77 4.44.87 4.42.93 4.37 1.02 4.33 1.09 4.33 1.15 4.28 1.25 4.25 1.33 4.21 1.38 4.2 1.48 4.15 1.54 4.11 1.59 4.08 1.69 4.04 1.76 4 1.82 3.97 1.91 3.91 1.95 3.89 2.02 3.86 2.11 3.8 2.15 3.75 2.22 3.73 2.31 3.68 2.35 3.62 2.42 3.6 2.47 3.53 2.55 3.49 2.6 3.44 2.66 3.39 2.71 3.36 2.78 3.3 2.84 3.24 2.89 3.2 2.95 46.98-46.98.24-.22.8-.6.27-.16.29-.17.29-.14.29-.15.57-.22.31-.12.31-.08.29-.09.31-.07.63-.09.31-.02.33-.02h.62l.62.04.62.09.32.07.31.09.28.08.32.12.28.11.32.11.28.15.27.14.29.17.27.16.28.2.25.2.26.2.25.22.49.49.22.24.2.25.4.53.15.29.18.29.13.26.16.29.11.31.11.29.11.31.09.29.09.31.07.31.09.62.04.63v.62l-.02.33-.02.31-.09.62-.07.31-.09.29-.09.31-.11.31-.22.58-.16.29-.13.29-.18.29-.15.26-.6.8-.22.25-47 47 2.93 3.19 2.86 3.25 2.82 3.28 2.75 3.33 2.69 3.4 2.64 3.44 2.58 3.49 2.53 3.53 2.46 3.57 2.4 3.62 2.33 3.66 2.27 3.71 2.22 3.75 2.13 3.78 2.08 3.84 2 3.86 1.96 3.93 1.86 3.95 1.82 3.98 1.73 4.04 1.67 4.06 1.6 4.08 1.53 4.13 1.46 4.18 1.38 4.19 1.31 4.24 1.22 4.27 1.18 4.3 1.06 4.33 1.03 4.35.91 4.38.84 4.42.78 4.44.68 4.46.63 4.51.51 4.5.44 4.55.38 4.58.26 4.57.2 4.62h65.94l.34.02.33.05.31.04.33.04.31.09.31.07.63.22.28.11.58.27.29.15.27.16.26.18.25.18.26.19.25.2.22.2.44.45.23.24.2.25.35.49.18.26.15.29.16.27.4.86.09.31.11.31.09.32.06.31.05.33.07.33.02.31.02.34v.68l-.04.67-.07.31-.05.33-.06.31-.09.32-.11.31-.09.31-.4.86-.16.29-.15.27-.18.26-.18.25-.17.27-.2.24-.89.89-.25.2-.26.17-.25.18-.26.18-.27.16-.29.15-.86.4-.31.09-.32.11-.31.09-.31.07-.33.04-.31.07-.67.04h-65.94l-.2 4.62-.26 4.59-.38 4.56-.44 4.55-.51 4.5-.63 4.51-.68 4.46-.78 4.44-.84 4.42-.91 4.38-1.03 4.37-1.06 4.31-1.18 4.3-1.22 4.27-1.31 4.24-1.38 4.19-1.46 4.18-1.53 4.13-1.6 4.1-1.67 4.07-1.73 4.01-1.82 4-1.86 3.95-1.96 3.91-2 3.86-2.08 3.84-2.13 3.8-2.22 3.75-2.27 3.71-2.33 3.66-2.4 3.62-2.46 3.58-2.53 3.53-2.58 3.48-2.64 3.42-2.69 3.4-2.75 3.33-2.82 3.31-2.86 3.22-2.93 3.19 47 47 .22.27.2.24.4.54.15.29.18.26.13.29.16.29.11.29.11.31.11.29.18.62.07.31.09.62.04.62v.62l-.04.63-.09.62-.07.31-.18.62-.11.29-.11.31-.11.29-.16.29-.13.29-.18.26-.15.29-.4.53-.2.25-.22.26-.25.25-.49.44-.26.22-.25.18-.28.2-.27.18-.29.15-.27.16-.31.13-.29.14-.28.11-.32.09-.28.08-.31.09-.32.07-.93.13h-.31l-.31.03-.33-.03h-.31l-.94-.13-.31-.07-.31-.09-.29-.08-.31-.09-.29-.11-.57-.27-.58-.31-.27-.18-.26-.2-.27-.18-.27-.22-.48-.44-46.74-46.76-3.2 2.95-3.24 2.89-3.3 2.84-3.36 2.78-3.39 2.73-3.44 2.66-3.49 2.6-3.53 2.53-3.6 2.49-3.62 2.42-3.68 2.35-3.71 2.29-3.77 2.22-3.8 2.17-3.84 2.09-3.89 2.02-3.93 1.98-3.97 1.88-4 1.82-4.04 1.76-4.08 1.69-4.11 1.59-4.15 1.56-4.2 1.46-4.21 1.4-4.25 1.31-4.28 1.25-4.33 1.17-4.33 1.09-4.37 1-4.42.95-4.42.85-4.46.77-4.51.69-4.5.62-4.53.54-4.58.44-4.57.38-4.62.26-4.64.2v65.94l-.04.67-.07.31-.04.33-.07.31-.09.31-.11.32-.09.31-.4.86-.15.29-.16.27-.18.26-.18.25-.17.26-.2.25-.89.89-.24.2-.27.17-.25.18-.26.18-.27.15-.58.32-.28.11-.29.13-.31.11-.63.18-.31.06-.33.07-.31.05-.67.04h-.68l-.34-.02-.31-.02-.33-.05-.33-.07-.31-.06-.63-.18-.31-.11-.29-.13-.28-.11-.29-.16-.27-.16-.29-.15-.26-.18-.49-.35-.25-.2-.24-.23-.45-.44-.2-.22-.2-.25-.19-.26-.18-.25-.18-.26-.16-.27-.15-.29-.27-.58-.11-.28-.22-.63-.07-.31-.09-.31-.04-.31-.09-.66-.02-.34v-65.94l-4.64-.2-4.62-.26-4.62-.38-4.57-.44-4.55-.54-4.51-.62-4.51-.69-4.46-.77-4.46-.87-4.42-.93-4.37-1.02-4.35-1.11-4.33-1.16-4.29-1.26-4.26-1.31-4.24-1.42-4.2-1.47-4.15-1.55-4.13-1.62-4.08-1.69-4.04-1.75-4.02-1.85-3.98-1.88-3.93-1.98-3.9-2.04-3.84-2.11-3.82-2.16-3.76-2.24-3.73-2.31-3.68-2.35-3.64-2.44-3.6-2.49-3.53-2.55-3.51-2.62-3.44-2.67-3.39-2.73-3.36-2.79-3.3-2.85-3.25-2.9-3.19-2.96-47.05 47.05-.24.22-.27.22-.24.22-.27.2-.27.18-.28.18-.27.15-.29.16-.58.27-.31.11-.29.09-.31.11-.62.13-.93.13-.31.03H98l-.31-.03-.94-.13-.62-.13-.31-.11-.29-.09-.31-.11-.58-.27-.28-.16-.27-.15-.29-.18-.27-.18-.26-.2-.25-.22-.26-.22-.25-.22-.22-.25-.22-.26-.22-.25-.18-.26-.2-.27-.18-.27-.31-.57-.27-.58-.11-.31-.08-.29-.18-.62-.07-.31-.04-.29-.05-.33-.04-.32v-.31l-.02-.31.02-.31v-.31l.13-.93.07-.31.18-.62.08-.29.11-.31.27-.58.16-.29.15-.26.18-.29.2-.27.18-.27.22-.24.22-.27.22-.24 47.09-47.09-2.91-3.18-2.84-3.24-2.82-3.28-2.73-3.33-2.68-3.4-2.62-3.42-2.58-3.48-2.51-3.53-2.44-3.56-2.4-3.62-2.31-3.66-2.26-3.71-2.2-3.73-2.13-3.79-2.07-3.82-2.02-3.86-1.93-3.91-1.86-3.95-1.8-3.98-1.73-4.02-1.67-4.04-1.57-4.1-1.54-4.11-1.44-4.17-1.38-4.18-1.31-4.24-1.22-4.24-1.15-4.28-1.07-4.33-1-4.36-.93-4.37-.84-4.39-.76-4.42-.68-4.47-.63-4.48-.51-4.51-.44-4.53-.36-4.55-.28-4.57-.2-4.62H7.84l-.34-.02-.31-.02-.33-.05-.33-.06-.31-.07-.63-.18-.28-.11-.31-.13-.29-.11-.29-.16-.27-.15-.29-.16-.24-.18-.27-.18-.24-.17-.25-.2-.24-.22-.44-.45-.2-.22-.4-.49-.36-.53-.15-.27-.16-.29-.27-.57-.11-.29-.22-.62-.07-.32-.08-.31-.05-.31-.09-.66-.02-.34v-.66l.02-.33.14-1 .08-.31.07-.32.11-.31.11-.29.11-.31.27-.57.31-.54.36-.53.6-.73.44-.45.73-.59.27-.18.24-.18.29-.16.27-.15.58-.27.31-.11.28-.11.63-.18.31-.06.33-.07.33-.04.31-.05.34-.02h65.94l.2-4.6.26-4.57.38-4.55.44-4.53.51-4.51.63-4.48.66-4.46.78-4.45.84-4.39.93-4.37 1-4.36 1.07-4.3 1.15-4.29 1.22-4.26 1.31-4.22 1.38-4.2 1.44-4.15 1.51-4.13 1.6-4.08 1.67-4.06 1.73-4.02 1.8-3.98 1.86-3.95 1.93-3.88 2-3.89 2.09-3.82 2.13-3.77 2.2-3.75 2.26-3.71 2.31-3.64 2.4-3.62 2.44-3.58 2.51-3.53 2.58-3.46 2.62-3.44 2.68-3.38 2.73-3.35 2.8-3.28 2.86-3.22 2.91-3.2-47.09-47.09-.44-.49-.22-.26-.18-.27-.2-.27-.18-.26-.31-.58-.27-.58-.11-.29-.17-.62-.09-.29-.07-.31-.13-.93v-.33l-.02-.31.02-.31v-.31l.13-.94.07-.31.09-.31.09-.29.08-.31.11-.29.14-.31.13-.29.16-.26.15-.29.18-.29.2-.27.18-.26.66-.74.25-.24.26-.22.25-.2.53-.4.29-.16.27-.17.28-.14.29-.15.29-.11.31-.11.29-.12.62-.17.31-.07.63-.09.62-.04h.62l.62.04.33.05.29.04.31.07.62.17.29.12.31.11.29.11.29.15.29.14.27.17.28.16.54.4.24.2.27.22 47.29 47.29 3.19-2.98 3.25-2.88 3.3-2.87 3.36-2.77 3.39-2.75 3.44-2.67 3.51-2.62 3.53-2.55 3.6-2.49 3.64-2.42 3.68-2.37 3.73-2.29 3.76-2.24 3.82-2.18 3.84-2.11 3.9-2.04 3.93-1.95 3.98-1.91 4.02-1.85 4.04-1.75 4.08-1.69 4.13-1.62 4.15-1.55 4.2-1.47 4.24-1.4 4.26-1.33 4.29-1.24 4.33-1.18 4.35-1.09 4.37-1.02 4.42-.93 4.46-.87 4.46-.77 4.51-.71 4.51-.6 4.55-.56 4.57-.44 4.62-.36 4.62-.28 4.64-.2V7.84l.02-.34.05-.31.08-.66.09-.31.07-.31.11-.32.11-.28.11-.31.27-.58.15-.27.16-.29.18-.24.18-.27.59-.73.45-.44.73-.6.25-.18.26-.18.29-.15.27-.16.57-.27.29-.11.62-.22.32-.07.31-.08.66-.09.31-.05.34-.02h.68l.34.02.33.05zm-19.85 90.71l-9.26.96-9.14 1.28-9.04 1.67-8.92 2.02-8.77 2.35-8.64 2.71-8.48 3.02-8.35 3.33-8.17 3.64-7.99 3.98-7.82 4.24-7.63 4.55-7.44 4.82-7.24 5.1-7.04 5.37-6.81 5.62-6.6 5.88-6.37 6.13-6.13 6.37-5.88 6.6-5.62 6.81-5.37 7.04-5.1 7.24-4.82 7.44-4.55 7.63-4.27 7.82-3.95 7.99-3.64 8.17-3.35 8.35-3.02 8.48-2.69 8.64-2.35 8.77-2.02 8.92-1.67 9.04-1.31 9.14-.93 9.26-.58 9.37-.2 9.48.2 9.46.58 9.37.93 9.28 1.31 9.15 1.67 9.03 2.02 8.9 2.35 8.8 2.69 8.63 3.02 8.48 3.35 8.33 3.64 8.17 3.95 7.99 4.27 7.84 4.55 7.61 4.82 7.46 5.1 7.24 5.37 7.04 5.62 6.81 5.88 6.6 6.13 6.35 6.37 6.13 6.6 5.88 6.81 5.64 7.04 5.37 7.24 5.08 7.44 4.84 7.63 4.53 7.82 4.27 7.99 3.95 8.17 3.66 8.35 3.33 8.48 3.02 8.64 2.69 8.77 2.35 8.92 2.02 9.04 1.67 9.14 1.31 9.26.95 9.37.56 9.48.2 9.46-.2 9.37-.56 9.26-.95 9.17-1.31 9.03-1.67 8.9-2.02 8.77-2.35 8.64-2.69 8.5-3.02 8.33-3.33 8.17-3.66 7.99-3.95 7.82-4.27 7.63-4.53 7.46-4.84 7.24-5.08 7.02-5.37 6.83-5.64 6.6-5.88 6.35-6.13 6.13-6.35 5.88-6.6 5.64-6.81 5.35-7.04 5.1-7.24 4.84-7.46 4.53-7.61 4.27-7.84 3.95-7.99 3.64-8.17 3.35-8.33 3.02-8.48 2.69-8.63 2.35-8.8 2.02-8.9 1.67-9.03 1.31-9.15.93-9.28.58-9.37.2-9.46-.2-9.48-.58-9.37-.93-9.26-1.31-9.14-1.67-9.04-2.02-8.92-2.35-8.77-2.69-8.64-3.02-8.48-3.35-8.35-3.64-8.17-3.95-7.99-4.27-7.82-4.53-7.63-4.84-7.44-5.1-7.24-5.35-7.04-5.64-6.81-5.88-6.6-6.13-6.37-6.35-6.13-6.6-5.88-6.81-5.62-7.04-5.37-7.24-5.1-7.46-4.82-7.61-4.55-7.84-4.24-7.99-3.98-8.17-3.64-8.33-3.33-8.5-3.02-8.64-2.71-8.77-2.35-8.9-2.02-9.03-1.67-9.17-1.28-9.26-.96-9.37-.58-9.46-.17-9.48.17-9.37.58z" id="g"/><path d="M321.01.07l.31.04.33.05.31.08.32.07.62.22.29.11.57.27.29.16.27.15.26.18.25.18.27.2.24.2.22.2.45.44.22.24.2.25.17.24.18.27.18.24.16.29.15.27.27.58.13.31.09.28.11.32.09.31.07.31.04.33.07.33.02.31.02.34v65.94l4.64.2 4.62.28 4.57.36 4.58.44 4.53.54 4.5.62 4.51.69 4.44.77 4.44.87 4.42.93 4.37 1.02 4.33 1.09 4.33 1.15 4.28 1.25 4.25 1.33 4.21 1.38 4.2 1.48 4.15 1.54 4.11 1.59 4.08 1.69 4.04 1.76 4 1.82 3.97 1.91 3.91 1.95 3.89 2.02 3.86 2.11 3.8 2.15 3.75 2.22 3.73 2.31 3.68 2.35 3.62 2.42 3.6 2.47 3.53 2.55 3.49 2.6 3.44 2.66 3.39 2.71 3.36 2.78 3.3 2.84 3.24 2.89 3.2 2.95 46.98-46.98.24-.22.8-.6.27-.16.29-.17.29-.14.29-.15.57-.22.31-.12.31-.08.29-.09.31-.07.63-.09.31-.02.33-.02h.62l.62.04.62.09.32.07.31.09.28.08.32.12.28.11.32.11.28.15.27.14.29.17.27.16.28.2.25.2.26.2.25.22.49.49.22.24.2.25.4.53.15.29.18.29.13.26.16.29.11.31.11.29.11.31.09.29.09.31.07.31.09.62.04.63v.62l-.02.33-.02.31-.09.62-.07.31-.09.29-.09.31-.11.31-.22.58-.16.29-.13.29-.18.29-.15.26-.6.8-.22.25-47 47 2.93 3.19 2.86 3.25 2.82 3.28 2.75 3.33 2.69 3.4 2.64 3.44 2.58 3.49 2.53 3.53 2.46 3.57 2.4 3.62 2.33 3.66 2.27 3.71 2.22 3.75 2.13 3.78 2.08 3.84 2 3.86 1.96 3.93 1.86 3.95 1.82 3.98 1.73 4.04 1.67 4.06 1.6 4.08 1.53 4.13 1.46 4.18 1.38 4.19 1.31 4.24 1.22 4.27 1.18 4.3 1.06 4.33 1.03 4.35.91 4.38.84 4.42.78 4.44.68 4.46.63 4.51.51 4.5.44 4.55.38 4.58.26 4.57.2 4.62h65.94l.34.02.33.05.31.04.33.04.31.09.31.07.63.22.28.11.58.27.29.15.27.16.26.18.25.18.26.19.25.2.22.2.44.45.23.24.2.25.35.49.18.26.15.29.16.27.4.86.09.31.11.31.09.32.06.31.05.33.07.33.02.31.02.34v.68l-.04.67-.07.31-.05.33-.06.31-.09.32-.11.31-.09.31-.4.86-.16.29-.15.27-.18.26-.18.25-.17.27-.2.24-.89.89-.25.2-.26.17-.25.18-.26.18-.27.16-.29.15-.86.4-.31.09-.32.11-.31.09-.31.07-.33.04-.31.07-.67.04h-65.94l-.2 4.62-.26 4.59-.38 4.56-.44 4.55-.51 4.5-.63 4.51-.68 4.46-.78 4.44-.84 4.42-.91 4.38-1.03 4.37-1.06 4.31-1.18 4.3-1.22 4.27-1.31 4.24-1.38 4.19-1.46 4.18-1.53 4.13-1.6 4.1-1.67 4.07-1.73 4.01-1.82 4-1.86 3.95-1.96 3.91-2 3.86-2.08 3.84-2.13 3.8-2.22 3.75-2.27 3.71-2.33 3.66-2.4 3.62-2.46 3.58-2.53 3.53-2.58 3.48-2.64 3.42-2.69 3.4-2.75 3.33-2.82 3.31-2.86 3.22-2.93 3.19 47 47 .22.27.2.24.4.54.15.29.18.26.13.29.16.29.11.29.11.31.11.29.18.62.07.31.09.62.04.62v.62l-.04.63-.09.62-.07.31-.18.62-.11.29-.11.31-.11.29-.16.29-.13.29-.18.26-.15.29-.4.53-.2.25-.22.26-.25.25-.49.44-.26.22-.25.18-.28.2-.27.18-.29.15-.27.16-.31.13-.29.14-.28.11-.32.09-.28.08-.31.09-.32.07-.93.13h-.31l-.31.03-.33-.03h-.31l-.94-.13-.31-.07-.31-.09-.29-.08-.31-.09-.29-.11-.57-.27-.58-.31-.27-.18-.26-.2-.27-.18-.27-.22-.48-.44-46.74-46.76-3.2 2.95-3.24 2.89-3.3 2.84-3.36 2.78-3.39 2.73-3.44 2.66-3.49 2.6-3.53 2.53-3.6 2.49-3.62 2.42-3.68 2.35-3.71 2.29-3.77 2.22-3.8 2.17-3.84 2.09-3.89 2.02-3.93 1.98-3.97 1.88-4 1.82-4.04 1.76-4.08 1.69-4.11 1.59-4.15 1.56-4.2 1.46-4.21 1.4-4.25 1.31-4.28 1.25-4.33 1.17-4.33 1.09-4.37 1-4.42.95-4.42.85-4.46.77-4.51.69-4.5.62-4.53.54-4.58.44-4.57.38-4.62.26-4.64.2v65.94l-.04.67-.07.31-.04.33-.07.31-.09.31-.11.32-.09.31-.4.86-.15.29-.16.27-.18.26-.18.25-.17.26-.2.25-.89.89-.24.2-.27.17-.25.18-.26.18-.27.15-.58.32-.28.11-.29.13-.31.11-.63.18-.31.06-.33.07-.31.05-.67.04h-.68l-.34-.02-.31-.02-.33-.05-.33-.07-.31-.06-.63-.18-.31-.11-.29-.13-.28-.11-.29-.16-.27-.16-.29-.15-.26-.18-.49-.35-.25-.2-.24-.23-.45-.44-.2-.22-.2-.25-.19-.26-.18-.25-.18-.26-.16-.27-.15-.29-.27-.58-.11-.28-.22-.63-.07-.31-.09-.31-.04-.31-.09-.66-.02-.34v-65.94l-4.64-.2-4.62-.26-4.62-.38-4.57-.44-4.55-.54-4.51-.62-4.51-.69-4.46-.77-4.46-.87-4.42-.93-4.37-1.02-4.35-1.11-4.33-1.16-4.29-1.26-4.26-1.31-4.24-1.42-4.2-1.47-4.15-1.55-4.13-1.62-4.08-1.69-4.04-1.75-4.02-1.85-3.98-1.88-3.93-1.98-3.9-2.04-3.84-2.11-3.82-2.16-3.76-2.24-3.73-2.31-3.68-2.35-3.64-2.44-3.6-2.49-3.53-2.55-3.51-2.62-3.44-2.67-3.39-2.73-3.36-2.79-3.3-2.85-3.25-2.9-3.19-2.96-47.05 47.05-.24.22-.27.22-.24.22-.27.2-.27.18-.28.18-.27.15-.29.16-.58.27-.31.11-.29.09-.31.11-.62.13-.93.13-.31.03H98l-.31-.03-.94-.13-.62-.13-.31-.11-.29-.09-.31-.11-.58-.27-.28-.16-.27-.15-.29-.18-.27-.18-.26-.2-.25-.22-.26-.22-.25-.22-.22-.25-.22-.26-.22-.25-.18-.26-.2-.27-.18-.27-.31-.57-.27-.58-.11-.31-.08-.29-.18-.62-.07-.31-.04-.29-.05-.33-.04-.32v-.31l-.02-.31.02-.31v-.31l.13-.93.07-.31.18-.62.08-.29.11-.31.27-.58.16-.29.15-.26.18-.29.2-.27.18-.27.22-.24.22-.27.22-.24 47.09-47.09-2.91-3.18-2.84-3.24-2.82-3.28-2.73-3.33-2.68-3.4-2.62-3.42-2.58-3.48-2.51-3.53-2.44-3.56-2.4-3.62-2.31-3.66-2.26-3.71-2.2-3.73-2.13-3.79-2.07-3.82-2.02-3.86-1.93-3.91-1.86-3.95-1.8-3.98-1.73-4.02-1.67-4.04-1.57-4.1-1.54-4.11-1.44-4.17-1.38-4.18-1.31-4.24-1.22-4.24-1.15-4.28-1.07-4.33-1-4.36-.93-4.37-.84-4.39-.76-4.42-.68-4.47-.63-4.48-.51-4.51-.44-4.53-.36-4.55-.28-4.57-.2-4.62H7.84l-.34-.02-.31-.02-.33-.05-.33-.06-.31-.07-.63-.18-.28-.11-.31-.13-.29-.11-.29-.16-.27-.15-.29-.16-.24-.18-.27-.18-.24-.17-.25-.2-.24-.22-.44-.45-.2-.22-.4-.49-.36-.53-.15-.27-.16-.29-.27-.57-.11-.29-.22-.62-.07-.32-.08-.31-.05-.31-.09-.66-.02-.34v-.66l.02-.33.14-1 .08-.31.07-.32.11-.31.11-.29.11-.31.27-.57.31-.54.36-.53.6-.73.44-.45.73-.59.27-.18.24-.18.29-.16.27-.15.58-.27.31-.11.28-.11.63-.18.31-.06.33-.07.33-.04.31-.05.34-.02h65.94l.2-4.6.26-4.57.38-4.55.44-4.53.51-4.51.63-4.48.66-4.46.78-4.45.84-4.39.93-4.37 1-4.36 1.07-4.3 1.15-4.29 1.22-4.26 1.31-4.22 1.38-4.2 1.44-4.15 1.51-4.13 1.6-4.08 1.67-4.06 1.73-4.02 1.8-3.98 1.86-3.95 1.93-3.88 2-3.89 2.09-3.82 2.13-3.77 2.2-3.75 2.26-3.71 2.31-3.64 2.4-3.62 2.44-3.58 2.51-3.53 2.58-3.46 2.62-3.44 2.68-3.38 2.73-3.35 2.8-3.28 2.86-3.22 2.91-3.2-47.09-47.09-.44-.49-.22-.26-.18-.27-.2-.27-.18-.26-.31-.58-.27-.58-.11-.29-.17-.62-.09-.29-.07-.31-.13-.93v-.33l-.02-.31.02-.31v-.31l.13-.94.07-.31.09-.31.09-.29.08-.31.11-.29.14-.31.13-.29.16-.26.15-.29.18-.29.2-.27.18-.26.66-.74.25-.24.26-.22.25-.2.53-.4.29-.16.27-.17.28-.14.29-.15.29-.11.31-.11.29-.12.62-.17.31-.07.63-.09.62-.04h.62l.62.04.33.05.29.04.31.07.62.17.29.12.31.11.29.11.29.15.29.14.27.17.28.16.54.4.24.2.27.22 47.29 47.29 3.19-2.98 3.25-2.88 3.3-2.87 3.36-2.77 3.39-2.75 3.44-2.67 3.51-2.62 3.53-2.55 3.6-2.49 3.64-2.42 3.68-2.37 3.73-2.29 3.76-2.24 3.82-2.18 3.84-2.11 3.9-2.04 3.93-1.95 3.98-1.91 4.02-1.85 4.04-1.75 4.08-1.69 4.13-1.62 4.15-1.55 4.2-1.47 4.24-1.4 4.26-1.33 4.29-1.24 4.33-1.18 4.35-1.09 4.37-1.02 4.42-.93 4.46-.87 4.46-.77 4.51-.71 4.51-.6 4.55-.56 4.57-.44 4.62-.36 4.62-.28 4.64-.2V7.84l.02-.34.05-.31.08-.66.09-.31.07-.31.11-.32.11-.28.11-.31.27-.58.15-.27.16-.29.18-.24.18-.27.59-.73.45-.44.73-.6.25-.18.26-.18.29-.15.27-.16.57-.27.29-.11.62-.22.32-.07.31-.08.66-.09.31-.05.34-.02h.68l.34.02.33.05zm-19.85 90.71l-9.26.96-9.14 1.28-9.04 1.67-8.92 2.02-8.77 2.35-8.64 2.71-8.48 3.02-8.35 3.33-8.17 3.64-7.99 3.98-7.82 4.24-7.63 4.55-7.44 4.82-7.24 5.1-7.04 5.37-6.81 5.62-6.6 5.88-6.37 6.13-6.13 6.37-5.88 6.6-5.62 6.81-5.37 7.04-5.1 7.24-4.82 7.44-4.55 7.63-4.27 7.82-3.95 7.99-3.64 8.17-3.35 8.35-3.02 8.48-2.69 8.64-2.35 8.77-2.02 8.92-1.67 9.04-1.31 9.14-.93 9.26-.58 9.37-.2 9.48.2 9.46.58 9.37.93 9.28 1.31 9.15 1.67 9.03 2.02 8.9 2.35 8.8 2.69 8.63 3.02 8.48 3.35 8.33 3.64 8.17 3.95 7.99 4.27 7.84 4.55 7.61 4.82 7.46 5.1 7.24 5.37 7.04 5.62 6.81 5.88 6.6 6.13 6.35 6.37 6.13 6.6 5.88 6.81 5.64 7.04 5.37 7.24 5.08 7.44 4.84 7.63 4.53 7.82 4.27 7.99 3.95 8.17 3.66 8.35 3.33 8.48 3.02 8.64 2.69 8.77 2.35 8.92 2.02 9.04 1.67 9.14 1.31 9.26.95 9.37.56 9.48.2 9.46-.2 9.37-.56 9.26-.95 9.17-1.31 9.03-1.67 8.9-2.02 8.77-2.35 8.64-2.69 8.5-3.02 8.33-3.33 8.17-3.66 7.99-3.95 7.82-4.27 7.63-4.53 7.46-4.84 7.24-5.08 7.02-5.37 6.83-5.64 6.6-5.88 6.35-6.13 6.13-6.35 5.88-6.6 5.64-6.81 5.35-7.04 5.1-7.24 4.84-7.46 4.53-7.61 4.27-7.84 3.95-7.99 3.64-8.17 3.35-8.33 3.02-8.48 2.69-8.63 2.35-8.8 2.02-8.9 1.67-9.03 1.31-9.15.93-9.28.58-9.37.2-9.46-.2-9.48-.58-9.37-.93-9.26-1.31-9.14-1.67-9.04-2.02-8.92-2.35-8.77-2.69-8.64-3.02-8.48-3.35-8.35-3.64-8.17-3.95-7.99-4.27-7.82-4.53-7.63-4.84-7.44-5.1-7.24-5.35-7.04-5.64-6.81-5.88-6.6-6.13-6.37-6.35-6.13-6.6-5.88-6.81-5.62-7.04-5.37-7.24-5.1-7.46-4.82-7.61-4.55-7.84-4.24-7.99-3.98-8.17-3.64-8.33-3.33-8.5-3.02-8.64-2.71-8.77-2.35-8.9-2.02-9.03-1.67-9.17-1.28-9.26-.96-9.37-.58-9.46-.17-9.48.17-9.37.58z" id="h"/></defs><use xlink:href="#a" fill="#ff3e00"/><use xlink:href="#a" fill-opacity="0" stroke="#000" stroke-opacity="0"/><use xlink:href="#b" fill-opacity="0"/><use xlink:href="#b" fill-opacity="0" stroke="#000" stroke-opacity="0"/><use xlink:href="#c" fill="#ff3e00" fill-opacity="0"/><use xlink:href="#c" fill-opacity="0" stroke="#000" stroke-opacity="0"/><use xlink:href="#d" fill-opacity="0"/><use xlink:href="#d" fill-opacity="0" stroke="#ff3e00" stroke-width="17"/><g><use xlink:href="#e" fill="#fff"/><use xlink:href="#e" fill-opacity="0" stroke="#000" stroke-opacity="0"/></g><g><use xlink:href="#f" fill-opacity="0"/><use xlink:href="#f" fill-opacity="0" stroke="#000" stroke-opacity="0"/></g><g><use xlink:href="#g" fill="#ff3e00"/><use xlink:href="#g" fill-opacity="0" stroke="#000" stroke-opacity="0"/></g><g><use xlink:href="#h" fill-opacity="0"/><use xlink:href="#h" fill-opacity="0" stroke="#000" stroke-opacity="0"/></g></svg>